<svg width="22" height="22" viewBox="0 0 22 22" fill="none" xmlns="http://www.w3.org/2000/svg">
<path d="M20.1667 15.51L19.167 15.4852C19.1668 15.4935 19.1667 15.5017 19.1667 15.51L20.1667 15.51ZM20.1667 18.26L19.1667 18.26L19.1667 18.2641L20.1667 18.26ZM18.1683 20.0933L18.0603 21.0875C18.0663 21.0881 18.0723 21.0887 18.0783 21.0893L18.1683 20.0933ZM10.2575 17.2792L10.8016 16.4401L10.7938 16.4352L10.2575 17.2792ZM4.7575 11.7792L5.60155 11.2428L5.59678 11.2355L4.7575 11.7792ZM1.94333 3.83167L0.947393 3.92167C0.947863 3.92688 0.948374 3.93208 0.948926 3.93727L1.94333 3.83167ZM3.7675 1.83334L3.7675 0.83334L3.76656 0.833341L3.7675 1.83334ZM6.5175 1.83334L6.5175 2.83339L6.52734 2.83329L6.5175 1.83334ZM8.35083 3.41001L9.34229 3.27924L9.34099 3.27006L8.35083 3.41001ZM8.9925 5.98584L8.0556 6.33545L8.05645 6.3377L8.9925 5.98584ZM8.58 7.92001L9.28712 8.62712L9.29105 8.62315L8.58 7.92001ZM7.41583 9.08417L6.70873 8.37707C6.39041 8.69538 6.32403 9.18714 6.54654 9.57847L7.41583 9.08417ZM12.9158 14.5842L12.4215 15.4535C12.8129 15.676 13.3046 15.6096 13.6229 15.2913L12.9158 14.5842ZM14.08 13.42L13.3769 12.7089L13.3729 12.7129L14.08 13.42ZM16.0142 13.0075L15.6623 13.9436L15.6646 13.9444L16.0142 13.0075ZM18.59 13.6492L18.7297 12.6589L18.7208 12.6578L18.59 13.6492ZM19.1667 15.51V18.26H21.1667V15.51H19.1667ZM19.1667 18.2641C19.1671 18.3801 19.1434 18.495 19.0969 18.6013L20.9294 19.4025C21.0874 19.041 21.1683 18.6505 21.1667 18.2559L19.1667 18.2641ZM19.0969 18.6013C19.0504 18.7076 18.9822 18.8031 18.8967 18.8815L20.2488 20.3553C20.5395 20.0885 20.7713 19.764 20.9294 19.4025L19.0969 18.6013ZM18.8967 18.8815C18.8112 18.96 18.7102 19.0197 18.6003 19.0569L19.2411 20.9514C19.6148 20.825 19.958 20.622 20.2488 20.3553L18.8967 18.8815ZM18.6003 19.0569C18.4904 19.094 18.3739 19.1078 18.2583 19.0974L18.0783 21.0893C18.4713 21.1248 18.8673 21.0778 19.2411 20.9514L18.6003 19.0569ZM18.2764 19.0992C15.6111 18.8096 13.051 17.8989 10.8016 16.4402L9.7134 18.1182C12.2252 19.7471 15.0841 20.7641 18.0603 21.0875L18.2764 19.0992ZM10.7938 16.4352C8.7029 15.1065 6.93017 13.3338 5.60151 11.2429L3.91349 12.3155C5.39961 14.6542 7.38245 16.6371 9.72118 18.1232L10.7938 16.4352ZM5.59678 11.2355C4.13299 8.9759 3.22205 6.4033 2.93774 3.72607L0.948926 3.93727C1.2664 6.92687 2.28364 9.79965 3.91822 12.3229L5.59678 11.2355ZM2.93928 3.74167C2.92886 3.62645 2.94256 3.51032 2.97948 3.40068L1.0841 2.76231C0.958549 3.13508 0.911991 3.52992 0.947393 3.92167L2.93928 3.74167ZM2.97948 3.40068C3.01641 3.29104 3.07576 3.19029 3.15376 3.10485L1.67664 1.75647C1.41145 2.04698 1.20965 2.38953 1.0841 2.76231L2.97948 3.40068ZM3.15376 3.10485C3.23176 3.0194 3.3267 2.95114 3.43252 2.90439L2.62443 1.07491C2.26462 1.23385 1.94184 1.46596 1.67664 1.75647L3.15376 3.10485ZM3.43252 2.90439C3.53835 2.85765 3.65275 2.83345 3.76844 2.83334L3.76656 0.833341C3.37321 0.833712 2.98424 0.915982 2.62443 1.07491L3.43252 2.90439ZM3.7675 2.83334H6.5175V0.833341H3.7675V2.83334ZM6.52734 2.83329C6.72955 2.8313 6.92559 2.90291 7.07891 3.03476L8.38299 1.51839C7.8617 1.07008 7.19518 0.826623 6.50766 0.833389L6.52734 2.83329ZM7.07891 3.03476C7.23223 3.16662 7.33237 3.34973 7.36068 3.54996L9.34099 3.27006C9.24477 2.58927 8.90428 1.9667 8.38299 1.51839L7.07891 3.03476ZM7.35942 3.54076C7.48535 4.4956 7.7189 5.43312 8.0556 6.33545L9.9294 5.63624C9.64543 4.87523 9.44846 4.08454 9.34225 3.27925L7.35942 3.54076ZM8.05645 6.3377C8.11251 6.48684 8.12464 6.64892 8.09141 6.80473L10.0474 7.22189C10.1604 6.69211 10.1192 6.14104 9.92855 5.63398L8.05645 6.3377ZM8.09141 6.80473C8.05818 6.96055 7.98098 7.10358 7.86895 7.21687L9.29105 8.62315C9.67194 8.23797 9.93443 7.75168 10.0474 7.22189L8.09141 6.80473ZM7.87289 7.2129L6.70873 8.37707L8.12294 9.79128L9.28711 8.62711L7.87289 7.2129ZM6.54654 9.57847C7.94044 12.0299 9.97015 14.0596 12.4215 15.4535L13.4101 13.7149C11.2717 12.4989 9.50108 10.7283 8.28513 8.58988L6.54654 9.57847ZM13.6229 15.2913L14.7871 14.1271L13.3729 12.7129L12.2087 13.8771L13.6229 15.2913ZM14.7831 14.1311C14.8964 14.019 15.0395 13.9418 15.1953 13.9086L14.7781 11.9526C14.2483 12.0656 13.762 12.3281 13.3769 12.709L14.7831 14.1311ZM15.1953 13.9086C15.3511 13.8754 15.5132 13.8875 15.6623 13.9436L16.366 12.0715C15.859 11.8809 15.3079 11.8396 14.7781 11.9526L15.1953 13.9086ZM15.6646 13.9444C16.5669 14.2811 17.5044 14.5147 18.4592 14.6406L18.7208 12.6578C17.9155 12.5515 17.1248 12.3546 16.3638 12.0706L15.6646 13.9444ZM18.4503 14.6394C18.6527 14.6679 18.8376 14.7699 18.9697 14.9258L20.4956 13.6329C20.0463 13.1027 19.4179 12.7561 18.7297 12.659L18.4503 14.6394ZM18.9697 14.9258C19.1018 15.0818 19.172 15.2809 19.167 15.4852L21.1664 15.5348C21.1836 14.84 20.9449 14.1632 20.4956 13.6329L18.9697 14.9258Z" fill="#111111"/>
</svg>
