<svg width="22" height="17" viewBox="0 0 22 17" fill="none" xmlns="http://www.w3.org/2000/svg">
<path d="M17.7428 7.91128C18.7828 7.91128 19.6419 7.57215 20.2975 6.89389C20.9758 6.21563 21.3149 5.37911 21.3149 4.40694C21.3149 3.43476 20.9758 2.59824 20.2975 1.91998C19.6193 1.24172 18.7601 0.902588 17.7428 0.902588C16.7254 0.902588 15.8662 1.24172 15.188 1.91998C14.5097 2.59824 14.1706 3.43476 14.1706 4.40694C14.1706 5.37911 14.5097 6.21563 15.188 6.89389C15.8888 7.57215 16.7254 7.91128 17.7428 7.91128ZM10.5306 12.9756L2.39145 1.17389H0.695801V17H2.79841V5.17563L10.9375 17H12.6332V1.17389H10.5306V12.9756ZM16.4541 5.69563C15.7984 4.99476 15.7984 3.81911 16.4541 3.11824C17.1097 2.41737 18.3758 2.41737 19.0315 3.11824C19.6871 3.81911 19.6871 4.99476 19.0315 5.69563C18.3758 6.3965 17.1097 6.3965 16.4541 5.69563ZM21.0436 11.2348V9.35824H14.4419V11.2348H21.0436Z" fill="black"/>
<path d="M17.7428 7.91128C18.7828 7.91128 19.6419 7.57215 20.2975 6.89389C20.9758 6.21563 21.3149 5.37911 21.3149 4.40694C21.3149 3.43476 20.9758 2.59824 20.2975 1.91998C19.6193 1.24172 18.7601 0.902588 17.7428 0.902588C16.7254 0.902588 15.8662 1.24172 15.188 1.91998C14.5097 2.59824 14.1706 3.43476 14.1706 4.40694C14.1706 5.37911 14.5097 6.21563 15.188 6.89389C15.8888 7.57215 16.7254 7.91128 17.7428 7.91128ZM10.5306 12.9756L2.39145 1.17389H0.695801V17H2.79841V5.17563L10.9375 17H12.6332V1.17389H10.5306V12.9756ZM16.4541 5.69563C15.7984 4.99476 15.7984 3.81911 16.4541 3.11824C17.1097 2.41737 18.3758 2.41737 19.0315 3.11824C19.6871 3.81911 19.6871 4.99476 19.0315 5.69563C18.3758 6.3965 17.1097 6.3965 16.4541 5.69563ZM21.0436 11.2348V9.35824H14.4419V11.2348H21.0436Z" fill="black"/>
</svg>
